<svg width="201" height="64" viewBox="0 0 201 64" fill="none" xmlns="http://www.w3.org/2000/svg">
  <text x="71" y="40" fill="white" font-family="Inter, Arial, sans-serif" font-size="26" font-weight="700">CoreumX</text>
  <path d="M32 62C48.5685 62 62 48.5685 62 32C62 15.4315 48.5685 2 32 2C15.4315 2 2 15.4315 2 32C2 48.5685 15.4315 62 32 62Z" fill="url(#paint0_linear_7_49619)" />
  <path d="M19.08 32.22C19.08 29.7 19.584 27.456 20.592 25.488C21.624 23.52 23.088 21.996 24.984 20.916C26.88 19.812 29.112 19.26 31.68 19.26C33.888 19.26 35.856 19.68 37.584 20.52C39.336 21.336 40.752 22.5 41.832 24.012C42.936 25.524 43.668 27.288 44.028 29.304H35.604C35.22 28.464 34.668 27.816 33.948 27.36C33.252 26.88 32.448 26.64 31.536 26.64C30.192 26.64 29.124 27.144 28.332 28.152C27.564 29.16 27.18 30.516 27.18 32.22C27.18 33.924 27.564 35.28 28.332 36.288C29.124 37.296 30.192 37.8 31.536 37.8C32.448 37.8 33.252 37.572 33.948 37.116C34.668 36.636 35.22 35.976 35.604 35.136H44.028C43.668 37.152 42.936 38.916 41.832 40.428C40.752 41.94 39.336 43.116 37.584 43.956C35.856 44.772 33.888 45.18 31.68 45.18C29.112 45.18 26.88 44.64 24.984 43.56C23.088 42.456 21.624 40.92 20.592 38.952C19.584 36.984 19.08 34.74 19.08 32.22ZM54.8975 28.44C55.7135 27.264 56.7095 26.328 57.8855 25.632C59.0615 24.912 60.2855 24.552 61.5575 24.552V33.084H59.2895C57.7775 33.084 56.6615 33.348 55.9415 33.876C55.2455 34.404 54.8975 35.34 54.8975 36.684V45H46.9055V24.696H54.8975V28.44Z" fill="white" />
  <defs>
    <linearGradient id="paint0_linear_7_49619" x1="2" y1="32" x2="60.2886" y2="32" gradientUnits="userSpaceOnUse">
      <stop stop-color="#BD24DF" />
      <stop offset="1" stop-color="#2D6ADE" />
    </linearGradient>
  </defs>
</svg>